<svg xmlns="http://www.w3.org/2000/svg" viewBox="0 0 128 128" width="128" height="128" role="img"><title>Construction stage 3</title><path d="M33 101v-39l28.5 -7 28.5 7v39l-28.5 7Z" fill="#c1ae80" stroke="#263b40" stroke-width="1.6" stroke-linejoin="round"/><path d="M61.5 108v-39l28.5 -7v39Z" fill="#7c8877" stroke="#263b40" stroke-width="1.6" stroke-linejoin="round"/><path d="M30 62l31.5 -18 31.5 18 -31.5 7Z" fill="#617f8b" stroke="#263b40" stroke-width="1.6" stroke-linejoin="round"/><rect x="47.25" y="87" width="7" height="15" rx="1" fill="#263b40"/><rect x="70.62" y="70" width="5" height="6" rx="1" fill="#f7d98d"/><rect x="15" y="62" width="18" height="43" rx="1" fill="#aeb5a1"/><rect x="27" y="62" width="6" height="43" rx="1" fill="#71878a"/><rect x="15" y="57" width="4" height="8" rx="1" fill="#d7d4b2"/><rect x="20" y="57" width="4" height="8" rx="1" fill="#d7d4b2"/><rect x="25" y="57" width="4" height="8" rx="1" fill="#d7d4b2"/><rect x="30" y="57" width="4" height="8" rx="1" fill="#d7d4b2"/><path d="M23 75v10" fill="none" stroke="#31434a" stroke-width="4" stroke-linecap="round" stroke-linejoin="round"/><rect x="95" y="53" width="18" height="52" rx="1" fill="#aeb5a1"/><rect x="107" y="53" width="6" height="52" rx="1" fill="#71878a"/><rect x="95" y="48" width="4" height="8" rx="1" fill="#d7d4b2"/><rect x="100" y="48" width="4" height="8" rx="1" fill="#d7d4b2"/><rect x="105" y="48" width="4" height="8" rx="1" fill="#d7d4b2"/><rect x="110" y="48" width="4" height="8" rx="1" fill="#d7d4b2"/><path d="M103 66v10" fill="none" stroke="#31434a" stroke-width="4" stroke-linecap="round" stroke-linejoin="round"/><path d="M62 39v-29" fill="none" stroke="#d8c594" stroke-width="2" stroke-linecap="round" stroke-linejoin="round"/><path d="M62 11l19 4 -5 6 5 4 -19 -3Z" fill="#bb4940" stroke="#263b40" stroke-width="1.6" stroke-linejoin="round"/><path d="M12 116V30h100v86M12 65h100M12 30l100 86" fill="none" stroke="#cfac72" stroke-width="3" stroke-linecap="round" stroke-linejoin="round"/></svg>
