<svg xmlns="http://www.w3.org/2000/svg" viewBox="0 0 128 128" width="128" height="128" role="img"><title>Royal Mine</title><ellipse cx="64" cy="111" rx="56" ry="12" fill="#102c39" opacity=".28"/><path d="M10 101l9 -38 24 -15 21 10 23 -35 28 80Z" fill="#708588" stroke="#263b40" stroke-width="1.6" stroke-linejoin="round"/><path d="M42 103v-23q14 -21 28 0v23Z" fill="#203b45" stroke="#263b40" stroke-width="1.6" stroke-linejoin="round"/><path d="M40 102V80q16 -26 32 0v22" fill="none" stroke="#bdaa7a" stroke-width="5" stroke-linecap="round" stroke-linejoin="round"/><path d="M43 98l-10 15m33 -15 10 15" fill="none" stroke="#bca778" stroke-width="3" stroke-linecap="round" stroke-linejoin="round"/><path d="M24 64l10 -13 7 14 -11 8Z" fill="#92aaa9" stroke="#263b40" stroke-width="1.6" stroke-linejoin="round"/><rect x="91" y="59" width="18" height="44" rx="1" fill="#aeb5a1"/><rect x="103" y="59" width="6" height="44" rx="1" fill="#71878a"/><rect x="91" y="54" width="4" height="8" rx="1" fill="#d7d4b2"/><rect x="96" y="54" width="4" height="8" rx="1" fill="#d7d4b2"/><rect x="101" y="54" width="4" height="8" rx="1" fill="#d7d4b2"/><rect x="106" y="54" width="4" height="8" rx="1" fill="#d7d4b2"/><path d="M99 72v10" fill="none" stroke="#31434a" stroke-width="4" stroke-linecap="round" stroke-linejoin="round"/><path d="M7 110v-12l9.5 -7 9.5 7v12l-9.5 7Z" fill="#c1ae80" stroke="#263b40" stroke-width="1.6" stroke-linejoin="round"/><path d="M16.5 117v-12l9.5 -7v12Z" fill="#7c8877" stroke="#263b40" stroke-width="1.6" stroke-linejoin="round"/><path d="M4 98l12.5 -18 12.5 18 -12.5 7Z" fill="#977758" stroke="#263b40" stroke-width="1.6" stroke-linejoin="round"/><rect x="11.75" y="96" width="7" height="15" rx="1" fill="#263b40"/><rect x="19.54" y="106" width="5" height="6" rx="1" fill="#f7d98d"/><path d="M101 63v-29" fill="none" stroke="#d8c594" stroke-width="2" stroke-linecap="round" stroke-linejoin="round"/><path d="M101 35l19 4 -5 6 5 4 -19 -3Z" fill="#bb4940" stroke="#263b40" stroke-width="1.6" stroke-linejoin="round"/><path d="M19 115h90" fill="none" stroke="#dfc68e" stroke-width="2" stroke-linecap="round" stroke-linejoin="round"/></svg>
