<svg xmlns="http://www.w3.org/2000/svg" viewBox="0 0 128 128" width="128" height="128" role="img"><title>Archery Range</title><ellipse cx="64" cy="111" rx="56" ry="12" fill="#102c39" opacity=".28"/><path d="M18 82v-23l20 -7 20 7v23l-20 7Z" fill="#c1ae80" stroke="#263b40" stroke-width="1.6" stroke-linejoin="round"/><path d="M38 89v-23l20 -7v23Z" fill="#7c8877" stroke="#263b40" stroke-width="1.6" stroke-linejoin="round"/><path d="M15 59l23 -18 23 18 -23 7Z" fill="#697d68" stroke="#263b40" stroke-width="1.6" stroke-linejoin="round"/><rect x="28" y="68" width="7" height="15" rx="1" fill="#263b40"/><rect x="44.400000000000006" y="67" width="5" height="6" rx="1" fill="#f7d98d"/><circle cx="91" cy="84" r="19" fill="#e2d0a0"/><circle cx="91" cy="84" r="12" fill="#b7614f"/><circle cx="91" cy="84" r="5" fill="#e2d0a0"/><path d="M64 57q28 23 0 46" fill="none" stroke="#b88e57" stroke-width="4" stroke-linecap="round" stroke-linejoin="round"/><path d="M64 57v46m-8 -23h40m-5 -4l5 4 -5 4" fill="none" stroke="#e4d7aa" stroke-width="1.5" stroke-linecap="round" stroke-linejoin="round"/></svg>
