<svg xmlns="http://www.w3.org/2000/svg" viewBox="0 0 128 128" width="128" height="128" role="img"><title>Royal Arsenal</title><ellipse cx="64" cy="111" rx="56" ry="12" fill="#102c39" opacity=".28"/><path d="M19 105v-35l28.5 -7 28.5 7v35l-28.5 7Z" fill="#c1ae80" stroke="#263b40" stroke-width="1.6" stroke-linejoin="round"/><path d="M47.5 112v-35l28.5 -7v35Z" fill="#7c8877" stroke="#263b40" stroke-width="1.6" stroke-linejoin="round"/><path d="M16 70l31.5 -18 31.5 18 -31.5 7Z" fill="#59666c" stroke="#263b40" stroke-width="1.6" stroke-linejoin="round"/><rect x="33.25" y="91" width="7" height="15" rx="1" fill="#263b40"/><rect x="56.620000000000005" y="78" width="5" height="6" rx="1" fill="#f7d98d"/><rect x="78" y="47" width="18" height="46" rx="1" fill="#aeb5a1"/><rect x="90" y="47" width="6" height="46" rx="1" fill="#71878a"/><rect x="78" y="42" width="4" height="8" rx="1" fill="#d7d4b2"/><rect x="83" y="42" width="4" height="8" rx="1" fill="#d7d4b2"/><rect x="88" y="42" width="4" height="8" rx="1" fill="#d7d4b2"/><rect x="93" y="42" width="4" height="8" rx="1" fill="#d7d4b2"/><path d="M86 60v10" fill="none" stroke="#31434a" stroke-width="4" stroke-linecap="round" stroke-linejoin="round"/><circle cx="55" cy="78" r="13" fill="#d5bd83"/><circle cx="55" cy="78" r="7" fill="#354e54"/><path d="M55 61v10m0 15v10M38 78h10m14 0h11" fill="none" stroke="#d5bd83" stroke-width="4" stroke-linecap="round" stroke-linejoin="round"/><path d="M89 93h20v20l-10 10 -10 -10Z" fill="#a75243" stroke="#263b40" stroke-width="1.6" stroke-linejoin="round"/><path d="M99 97v20M93 104h12" fill="none" stroke="#e4cf99" stroke-width="2" stroke-linecap="round" stroke-linejoin="round"/></svg>
