<svg xmlns="http://www.w3.org/2000/svg" viewBox="0 0 128 128" width="128" height="128" role="img"><title>City Walls</title><ellipse cx="64" cy="111" rx="56" ry="12" fill="#102c39" opacity=".28"/><path d="M24 103V72h82v31l-41 14Z" fill="#92a39b" stroke="#263b40" stroke-width="1.6" stroke-linejoin="round"/><rect x="16" y="56" width="18" height="49" rx="1" fill="#aeb5a1"/><rect x="28" y="56" width="6" height="49" rx="1" fill="#71878a"/><rect x="16" y="51" width="4" height="8" rx="1" fill="#d7d4b2"/><rect x="21" y="51" width="4" height="8" rx="1" fill="#d7d4b2"/><rect x="26" y="51" width="4" height="8" rx="1" fill="#d7d4b2"/><rect x="31" y="51" width="4" height="8" rx="1" fill="#d7d4b2"/><path d="M24 69v10" fill="none" stroke="#31434a" stroke-width="4" stroke-linecap="round" stroke-linejoin="round"/><rect x="93" y="56" width="18" height="49" rx="1" fill="#aeb5a1"/><rect x="105" y="56" width="6" height="49" rx="1" fill="#71878a"/><rect x="93" y="51" width="4" height="8" rx="1" fill="#d7d4b2"/><rect x="98" y="51" width="4" height="8" rx="1" fill="#d7d4b2"/><rect x="103" y="51" width="4" height="8" rx="1" fill="#d7d4b2"/><rect x="108" y="51" width="4" height="8" rx="1" fill="#d7d4b2"/><path d="M101 69v10" fill="none" stroke="#31434a" stroke-width="4" stroke-linecap="round" stroke-linejoin="round"/><path d="M52 109V89q13 -16 26 0v20Z" fill="#263f46" stroke="#263b40" stroke-width="1.6" stroke-linejoin="round"/></svg>
